<svg width="500" height="121" viewBox="0 0 500 121" fill="none" xmlns="http://www.w3.org/2000/svg">
<path d="M108.295 115.38C99.7685 96.727 90.9752 77.5415 82.1818 58.0895C73.3884 38.6375 64.3286 19.452 56.0682 0.799397C55.8017 0.266466 55.2688 0 54.4694 0C53.9364 0 53.137 0.266466 52.8706 0.799397L0.110374 115.38C-0.156092 115.913 0.110374 116.445 0.376839 116.978C0.643305 117.245 1.17624 117.511 1.70917 117.511H16.3648C16.8977 117.511 17.4306 117.245 17.9636 116.445L29.9545 89.7989H78.1848V90.0654C79.7836 93.7959 81.6489 97.7929 83.2477 101.523C85.6459 106.586 88.044 111.649 90.1758 116.712C90.7087 117.511 91.2416 117.778 91.7746 117.778H106.697C107.23 117.778 107.762 117.511 108.029 117.245C108.562 116.712 108.562 116.179 108.295 115.38ZM36.8826 74.6104L54.2029 35.4399L54.4694 35.9729L71.7896 74.6104H36.8826Z" fill="#F35647"/>
<path d="M155.993 45.5656C147.732 45.5656 140.538 48.7632 134.676 55.1584L134.143 55.6913V1.33233C134.143 0.799397 133.343 0 132.544 0H119.487C118.688 0 117.888 0.799397 117.888 1.33233V116.179C117.888 116.978 118.688 117.778 119.487 117.778H132.544C133.61 117.778 134.143 117.245 134.143 116.179V110.05L134.676 110.583C140.538 116.445 147.999 119.91 155.46 119.91C178.642 119.91 189.035 100.458 189.035 82.3379C189.035 64.4847 177.577 45.5656 155.993 45.5656ZM152.795 105.52C140.005 105.52 133.343 94.0624 133.343 82.6044C133.343 71.6793 140.271 59.9548 152.795 59.9548C164.786 59.9548 173.047 69.2811 173.047 82.6044C173.047 94.0624 166.918 105.52 152.795 105.52Z" fill="#F35647"/>
<path d="M214.349 0H201.292C200.493 0 199.693 0.799397 199.693 1.33233V116.179C199.693 116.978 200.493 117.778 201.292 117.778H214.349C215.148 117.778 215.948 117.245 215.948 116.179V1.33233C215.681 0.799397 214.882 0 214.349 0Z" fill="#F35647"/>
<path d="M261.247 45.5656C240.196 45.5656 227.139 59.9548 227.139 83.1373C227.139 104.721 241.262 119.91 261.513 119.91C275.369 119.91 286.827 112.981 293.489 100.724V100.458C293.489 99.9246 293.223 99.3917 292.423 98.8588L281.498 92.7301C280.699 92.1971 280.166 92.4636 279.366 92.9965C275.103 99.9246 270.84 105.52 261.513 105.52C251.121 105.52 243.926 98.5923 243.127 88.4666V88.2001H292.69C293.489 88.2001 294.288 87.6672 294.288 86.8678V84.7361C294.555 66.6164 285.762 45.5656 261.247 45.5656ZM244.459 74.6104V74.3439C246.591 67.1494 252.986 59.9548 261.247 59.9548C270.573 59.9548 275.902 67.4158 278.034 74.3439V74.6104H244.459Z" fill="#F35647"/>
<path d="M346.249 47.6974H330.261V29.3112C330.261 28.5118 329.728 27.9789 328.663 27.9789H315.606C314.806 27.9789 314.007 28.5118 314.007 29.3112V37.0387C314.007 40.5028 314.007 47.6974 304.414 47.6974H301.749C300.95 47.6974 300.151 48.4968 300.151 49.0297V61.2871C300.151 62.353 301.483 62.6194 301.749 62.6194H314.007V92.1971C314.007 111.116 321.201 120.176 336.39 120.176C340.92 120.176 344.384 119.643 346.782 118.577C347.315 118.577 347.848 117.778 347.848 117.245V104.455C347.848 103.655 347.049 103.122 346.249 103.122C345.983 103.122 345.45 103.389 345.183 103.389C343.318 104.188 341.453 104.987 338.788 104.987C338.255 104.987 337.456 104.987 336.923 104.987C330.261 103.389 330.261 94.8618 330.261 88.9995V62.8859H346.249C346.516 62.8859 347.848 62.8859 347.848 61.5536V49.2962C347.848 48.4968 347.315 47.6974 346.249 47.6974Z" fill="#F35647"/>
<path d="M392.081 45.5656C371.031 45.5656 354.51 61.82 354.51 82.6044C354.51 103.389 371.031 119.643 392.081 119.643C413.132 119.643 429.653 103.389 429.653 82.6044C429.653 61.82 413.132 45.5656 392.081 45.5656ZM392.081 104.721C380.357 104.721 370.764 94.8618 370.764 82.8708C370.764 70.8799 380.357 61.0207 392.081 61.0207C403.806 61.0207 413.665 70.8799 413.665 82.8708C413.665 94.8618 404.072 104.721 392.081 104.721Z" fill="#F35647"/>
<path d="M474.419 45.5656C467.491 45.5656 460.563 48.2303 456.3 52.7602L455.767 53.2931L455.5 49.0297C455.5 48.4968 454.701 47.6974 453.901 47.6974H440.845C440.045 47.6974 439.246 48.4968 439.246 49.0297V116.179C439.246 116.978 440.045 117.778 440.845 117.778H453.901C454.967 117.778 455.5 117.245 455.5 116.179V85.5355C455.5 74.3439 455.5 60.2213 470.422 60.2213C482.68 60.2213 483.746 68.2152 483.746 78.0745V116.446C483.746 117.245 484.545 118.044 485.344 118.044H498.401C499.201 118.044 500 117.511 500 116.446V76.4757C499.734 54.8919 492.006 45.5656 474.419 45.5656Z" fill="#F35647"/>
</svg>
